<svg xmlns="http://www.w3.org/2000/svg" width="32" height="32" viewBox="0 0 32 32">
  <defs>
    <linearGradient id="grad1" x1="0%" y1="0%" x2="100%" y2="100%">
      <stop offset="0%" style="stop-color:#2563eb;stop-opacity:1" />
      <stop offset="100%" style="stop-color:#10b981;stop-opacity:1" />
    </linearGradient>
  </defs>
  
  <!-- Background circle -->
  <circle cx="16" cy="16" r="14" fill="url(#grad1)"/>
  
  <!-- AI symbol - stylized infinity with dot -->
  <path d="M8 16c0-2.2 1.8-4 4-4s4 1.8 4 4-1.8 4-4 4-4-1.8-4-4z" fill="white" opacity="0.9"/>
  <path d="M20 16c0-2.2 1.8-4 4-4s4 1.8 4 4-1.8 4-4 4-4-1.8-4-4z" fill="white" opacity="0.9"/>
  <path d="M16 14c1.1 0 2 0.9 2 2s-0.9 2-2 2-2-0.9-2-2 0.9-2 2-2z" fill="#2563eb"/>
  
  <!-- Infinity symbol -->
  <path d="M8 12c2.2 0 4 1.8 4 4s-1.8 4-4 4M24 12c-2.2 0-4 1.8-4 4s1.8 4 4 4" 
        stroke="white" stroke-width="1.5" fill="none" opacity="0.8"/>
</svg>